<svg width="21" height="22" viewBox="0 0 21 22" fill="none" xmlns="http://www.w3.org/2000/svg">
<path d="M14.9432 13.7081H13.9988L13.6641 13.3717C15.0986 11.6271 15.8398 9.24701 15.4333 6.71738C14.8715 3.25316 12.0982 0.486767 8.75105 0.0630857C3.69452 -0.584898 -0.561089 3.8513 0.0605177 9.1224C0.466953 12.6115 3.12073 15.5025 6.44394 16.0882C8.87059 16.5119 11.1538 15.7393 12.8274 14.244L13.1501 14.5929V15.5773L18.2306 20.8733C18.7207 21.3842 19.5216 21.3842 20.0117 20.8733C20.5018 20.3624 20.5018 19.5275 20.0117 19.0166L14.9432 13.7081ZM7.77083 13.7081C4.79429 13.7081 2.39154 11.2034 2.39154 8.10058C2.39154 4.99773 4.79429 2.49302 7.77083 2.49302C10.7474 2.49302 13.1501 4.99773 13.1501 8.10058C13.1501 11.2034 10.7474 13.7081 7.77083 13.7081Z" fill="#999999"/>
</svg>
